<mxfile host="65bd71144e">
    <diagram id="6p6boP8HH-4tN7Vwsjlj" name="第 1 页">
        <mxGraphModel dx="258" dy="483" grid="1" gridSize="10" guides="1" tooltips="1" connect="1" arrows="1" fold="1" page="1" pageScale="1" pageWidth="827" pageHeight="1169" background="#ffffff" math="0" shadow="1">
            <root>
                <mxCell id="0"/>
                <mxCell id="1" parent="0"/>
                <mxCell id="6" value="&lt;b&gt;&lt;font color=&quot;#000000&quot;&gt;EventLoop::EventLoop&lt;/font&gt;&lt;/b&gt;" style="rounded=1;whiteSpace=wrap;html=1;fontSize=11;fillColor=#cce5ff;strokeColor=#36393d;shadow=0;glass=0;" vertex="1" parent="1">
                    <mxGeometry x="30" y="80" width="150" height="60" as="geometry"/>
                </mxCell>
            </root>
        </mxGraphModel>
    </diagram>
</mxfile>